<?xml version="1.0" standalone="no"?>
<!DOCTYPE svg PUBLIC "-//W3C//DTD SVG 20010904//EN"
 "http://www.w3.org/TR/2001/REC-SVG-20010904/DTD/svg10.dtd">
<svg version="1.0" xmlns="http://www.w3.org/2000/svg"
 width="700.000000pt" height="700.000000pt" viewBox="0 0 700.000000 700.000000"
 preserveAspectRatio="xMidYMid meet">
<metadata>
Created by potrace 1.11, written by Peter Selinger 2001-2013
</metadata>
<g transform="translate(0.000000,700.000000) scale(0.100000,-0.100000)"
fill="#000000" stroke="none">
<path d="M1266 6990 c-2 -3 -2 -189 -2 -415 l1 -410 250 0 250 0 0 408 c0 264
-3 411 -10 415 -12 8 -486 10 -489 2z"/>
<path d="M4186 6990 c-1 -3 -2 -189 -2 -415 l1 -410 293 -2 292 -2 0 414 c0
228 -3 416 -7 416 -26 4 -575 3 -577 -1z"/>
<path d="M310 6395 c-126 -45 -215 -121 -264 -225 l-31 -65 -2 -597 -2 -598
2963 0 2962 0 -1 598 c-1 328 -5 611 -10 627 -35 128 -140 230 -270 264 -23 7
-163 11 -337 11 l-298 0 0 -132 c-1 -301 -2 -307 -34 -333 -16 -13 -42 -26
-59 -29 -55 -11 -860 -7 -901 5 -22 6 -52 24 -66 39 l-26 28 0 211 1 211 -960
0 -960 0 0 -215 c0 -201 -2 -216 -21 -242 -12 -15 -32 -31 -45 -34 -13 -4
-214 -7 -446 -8 -443 -1 -465 1 -480 43 -4 12 -8 118 -8 236 l-1 215 -334 1
c-249 2 -344 -1 -370 -11z"/>
<path d="M13 2892 l2 -1767 32 -66 c57 -116 175 -205 302 -229 57 -11 2721
-14 2721 -4 0 3 -8 18 -19 32 -34 48 -148 295 -184 397 -35 102 -85 289 -93
354 -2 20 -7 47 -9 61 -20 101 -27 402 -13 545 11 112 55 323 94 445 141 446
399 819 764 1106 226 178 541 333 819 404 77 19 86 21 189 39 31 5 73 13 92
16 19 4 130 8 245 10 339 6 581 -39 873 -162 57 -24 105 -43 106 -43 1 0 2
142 2 315 l-1 315 -2962 0 -2962 0 2 -1768z"/>
<path d="M4819 3986 c-2 -2 -31 -6 -64 -10 -33 -3 -71 -8 -85 -11 -14 -3 -38
-8 -55 -11 -16 -2 -73 -16 -125 -29 -545 -137 -1025 -526 -1283 -1040 -86
-172 -164 -416 -182 -574 -4 -30 -9 -63 -12 -75 -9 -39 -11 -370 -2 -451 18
-161 82 -424 124 -508 8 -17 15 -34 15 -39 0 -41 207 -394 282 -480 13 -14 38
-45 57 -67 28 -34 86 -94 200 -202 9 -8 36 -30 61 -49 25 -19 47 -37 50 -40
21 -24 217 -143 316 -191 191 -93 346 -142 578 -183 112 -20 345 -27 485 -14
466 42 934 269 1256 609 97 103 125 137 215 271 274 406 383 887 316 1393 -11
86 -53 253 -88 355 -246 712 -867 1223 -1623 1335 -47 7 -430 17 -436 11z"/>
</g>
</svg>
